STARTFONT 2.1
COMMENT $XConsortium: lubI24.bdf,v 1.9 94/04/02 16:10:46 gildea Exp $
COMMENT  (c) Copyright Bigelow & Holmes 1986, 1985. Lucida is a registered
COMMENT  trademark of Bigelow & Holmes. See LEGAL NOTICE file for terms 
COMMENT  of the license. 
COMMENT  
COMMENT  Translation to ISO8859-2 by Cub Soft;  Petr.Kolar@vslib.cz
COMMENT  
FONT -B&H-LucidaBright-Medium-I-Normal--24-240-75-75-P-136-ISO8859-2
SIZE 24 72 72
FONTBOUNDINGBOX 40 27 -13 -5
STARTPROPERTIES 20
COMMENT Begin LogicalFontDescription
FONTNAME_REGISTRY ""
FOUNDRY "B&H"
FAMILY_NAME "LucidaBright"
WEIGHT_NAME "Medium"
SLANT "I"
SETWIDTH_NAME "Normal"
ADD_STYLE_NAME ""
PIXEL_SIZE 24
POINT_SIZE 240
RESOLUTION_X 75
RESOLUTION_Y 75
SPACING "P"
AVERAGE_WIDTH 136
CHARSET_REGISTRY "ISO8859"
CHARSET_ENCODING "2"
COMMENT END LogicalFontDescription
FONT_ASCENT 22
FONT_DESCENT 6
DEFAULT_CHAR 0
COPYRIGHT "Copyright Bigelow & Holmes 1986, 1985., Copyright 1996 Cub Soft"
FACE_NAME "Lucida Bright Italic"
ENDPROPERTIES
CHARS 191
STARTCHAR space
ENCODING 32
SWIDTH 333 0
DWIDTH 7 0
BBX 1 1 0 0
BITMAP
00
ENDCHAR
STARTCHAR exclam
ENCODING 33
SWIDTH 265 0
DWIDTH 6 0
BBX 6 17 2 0
BITMAP
0c
1c
18
18
18
18
10
30
30
20
20
20
00
00
00
e0
c0
ENDCHAR
STARTCHAR quotedbl
ENCODING 34
SWIDTH 377 0
DWIDTH 9 0
BBX 6 5 5 12
BITMAP
cc
cc
cc
4c
48
ENDCHAR
STARTCHAR numbersign
ENCODING 35
SWIDTH 608 0
DWIDTH 15 0
BBX 15 17 2 0
BITMAP
00c6
0084
0188
0108
0310
7ffe
0620
0460
0c40
08c0
fffc
1180
3100
2100
6200
4200
c600
ENDCHAR
STARTCHAR dollar
ENCODING 36
SWIDTH 608 0
DWIDTH 15 0
BBX 11 21 4 -2
BITMAP
0200
0200
0fc0
1a60
3240
3440
3400
3400
3c00
1c00
0e00
0f00
0b80
0980
0980
c980
c900
d300
fc00
1000
1000
ENDCHAR
STARTCHAR percent
ENCODING 37
SWIDTH 759 0
DWIDTH 18 0
BBX 17 17 2 0
BITMAP
0e0180
310300
310600
618c00
611800
633000
222000
3c4000
009e00
013200
026300
066300
0c4300
184300
304600
606400
c03800
ENDCHAR
STARTCHAR ampersand
ENCODING 38
SWIDTH 727 0
DWIDTH 17 0
BBX 18 17 2 0
BITMAP
00f000
019800
030c00
030c00
071800
033000
03e000
0f0000
338fc0
618300
e1c200
c0c600
c0e400
e07800
e07000
707800
1f9f00
ENDCHAR
STARTCHAR apostrophe
ENCODING 39
SWIDTH 265 0
DWIDTH 6 0
BBX 4 6 4 11
BITMAP
70
70
20
60
c0
80
ENDCHAR
STARTCHAR parenleft
ENCODING 40
SWIDTH 310 0
DWIDTH 7 0
BBX 8 21 2 -4
BITMAP
01
02
04
08
18
30
30
60
60
e0
e0
c0
c0
c0
c0
c0
c0
40
40
20
10
ENDCHAR
STARTCHAR parenright
ENCODING 41
SWIDTH 310 0
DWIDTH 7 0
BBX 8 21 0 -4
BITMAP
08
04
02
02
02
03
03
03
03
07
07
06
06
06
0c
0c
18
10
20
40
80
ENDCHAR
STARTCHAR asterisk
ENCODING 42
SWIDTH 458 0
DWIDTH 11 0
BBX 9 9 4 8
BITMAP
0c00
0c00
4800
eb80
3600
1800
2400
e600
4400
ENDCHAR
STARTCHAR plus
ENCODING 43
SWIDTH 608 0
DWIDTH 15 0
BBX 14 14 2 0
BITMAP
0080
0080
0180
0180
0100
0100
0100
fffc
0200
0200
0200
0200
0600
0400
ENDCHAR
STARTCHAR comma
ENCODING 44
SWIDTH 265 0
DWIDTH 6 0
BBX 4 9 1 -5
BITMAP
70
70
70
70
20
20
60
40
c0
ENDCHAR
STARTCHAR minus
ENCODING 45
SWIDTH 608 0
DWIDTH 15 0
BBX 14 1 2 7
BITMAP
fffc
ENDCHAR
STARTCHAR period
ENCODING 46
SWIDTH 265 0
DWIDTH 6 0
BBX 3 3 2 0
BITMAP
e0
e0
e0
ENDCHAR
STARTCHAR slash
ENCODING 47
SWIDTH 458 0
DWIDTH 11 0
BBX 15 21 0 -4
BITMAP
0006
000c
0008
0018
0010
0020
0060
0040
00c0
0180
0100
0300
0600
0400
0c00
0800
1000
3000
2000
4000
c000
ENDCHAR
STARTCHAR zero
ENCODING 48
SWIDTH 608 0
DWIDTH 15 0
BBX 13 17 3 0
BITMAP
03c0
0c70
1830
3038
3038
7038
6038
6038
e038
e030
c030
c070
c060
e0e0
60c0
7180
1e00
ENDCHAR
STARTCHAR one
ENCODING 49
SWIDTH 608 0
DWIDTH 15 0
BBX 9 17 3 0
BITMAP
1f80
0380
0300
0300
0300
0300
0700
0600
0600
0600
0600
0e00
0c00
0c00
0c00
1c00
ff80
ENDCHAR
STARTCHAR two
ENCODING 50
SWIDTH 608 0
DWIDTH 15 0
BBX 13 17 2 0
BITMAP
07e0
1c70
1838
1018
0018
0038
0030
0060
00c0
0300
0600
0800
1000
2000
6000
ffe0
ffc0
ENDCHAR
STARTCHAR three
ENCODING 51
SWIDTH 608 0
DWIDTH 15 0
BBX 12 17 3 0
BITMAP
0fc0
0870
1830
1030
0030
0060
01c0
1f00
0180
00e0
0060
0060
0060
c0e0
c0c0
c380
fe00
ENDCHAR
STARTCHAR four
ENCODING 52
SWIDTH 608 0
DWIDTH 15 0
BBX 13 17 1 0
BITMAP
0018
0030
0070
00b0
0130
0260
0460
1860
2060
6060
fff8
fff8
00c0
00c0
01c0
01c0
07f0
ENDCHAR
STARTCHAR five
ENCODING 53
SWIDTH 608 0
DWIDTH 15 0
BBX 13 17 3 0
BITMAP
0ff8
1ff8
1000
1000
1000
1000
3f00
01c0
00c0
00e0
0060
0060
00e0
c0c0
c1c0
c380
fe00
ENDCHAR
STARTCHAR six
ENCODING 54
SWIDTH 608 0
DWIDTH 15 0
BBX 13 17 3 0
BITMAP
03f0
0618
1c18
1800
3000
7000
77c0
78e0
e070
e070
c070
c070
c060
c060
60c0
7180
1e00
ENDCHAR
STARTCHAR seven
ENCODING 55
SWIDTH 608 0
DWIDTH 15 0
BBX 13 17 4 0
BITMAP
3ff8
3ff8
0010
0020
0040
0080
0100
0300
0600
0400
0800
1800
3000
7000
6000
e000
e000
ENDCHAR
STARTCHAR eight
ENCODING 56
SWIDTH 608 0
DWIDTH 15 0
BBX 12 17 3 0
BITMAP
07c0
0c70
1830
3830
3830
3860
1cc0
0f80
1f80
21c0
60e0
c0e0
c0e0
c0e0
e0c0
6180
3e00
ENDCHAR
STARTCHAR nine
ENCODING 57
SWIDTH 608 0
DWIDTH 15 0
BBX 13 17 3 0
BITMAP
03c0
0c70
1830
3038
3018
7018
7038
7038
7038
38f0
1f70
0070
0060
00c0
c180
c300
7e00
ENDCHAR
STARTCHAR colon
ENCODING 58
SWIDTH 265 0
DWIDTH 6 0
BBX 5 13 2 0
BITMAP
38
38
38
00
00
00
00
00
00
00
e0
e0
e0
ENDCHAR
STARTCHAR semicolon
ENCODING 59
SWIDTH 265 0
DWIDTH 6 0
BBX 6 18 1 -5
BITMAP
1c
1c
1c
00
00
00
00
00
00
00
00
70
70
30
20
60
60
c0
ENDCHAR
STARTCHAR less
ENCODING 60
SWIDTH 608 0
DWIDTH 15 0
BBX 15 14 2 0
BITMAP
0002
000c
0030
01c0
0700
1c00
f000
7000
1800
0e00
0380
00e0
0030
0018
ENDCHAR
STARTCHAR equal
ENCODING 61
SWIDTH 608 0
DWIDTH 15 0
BBX 15 7 1 4
BITMAP
7ffe
0000
0000
0000
0000
0000
fffc
ENDCHAR
STARTCHAR greater
ENCODING 62
SWIDTH 608 0
DWIDTH 15 0
BBX 15 14 0 0
BITMAP
3000
1800
0e00
0380
00e0
0030
001c
001e
0070
01c0
0700
1800
6000
8000
ENDCHAR
STARTCHAR question
ENCODING 63
SWIDTH 471 0
DWIDTH 11 0
BBX 9 17 4 0
BITMAP
3f00
6380
4180
c180
0180
0380
0300
0400
0800
3000
3000
6000
6000
0000
0000
e000
c000
ENDCHAR
STARTCHAR at
ENCODING 64
SWIDTH 861 0
DWIDTH 21 0
BBX 19 17 3 0
BITMAP
00fc00
030300
0c00c0
100040
20fc20
410c20
420c20
820820
861820
842820
843840
865880
838f00
400000
200000
181000
07e000
ENDCHAR
STARTCHAR A
ENCODING 65
SWIDTH 747 0
DWIDTH 18 0
BBX 18 17 0 0
BITMAP
000800
001800
001c00
003c00
005c00
004c00
008c00
010e00
010e00
020e00
060600
07fe00
080700
100700
200700
200780
f81fc0
ENDCHAR
STARTCHAR B
ENCODING 66
SWIDTH 606 0
DWIDTH 15 0
BBX 15 17 0 0
BITMAP
1ff8
070e
070e
0706
0606
060c
0e18
0e30
0fe0
0c38
0c1c
1c0c
1c0c
181c
1818
3878
ffe0
ENDCHAR
STARTCHAR C
ENCODING 67
SWIDTH 714 0
DWIDTH 17 0
BBX 16 17 3 0
BITMAP
01ff
0707
0e03
1c02
3800
7000
7000
6000
e000
e000
e000
e000
e000
6000
7000
3818
0fe0
ENDCHAR
STARTCHAR D
ENCODING 68
SWIDTH 770 0
DWIDTH 18 0
BBX 19 17 0 0
BITMAP
1ffe00
070380
0701c0
0600e0
0600e0
0600e0
0e00e0
0e00e0
0c00e0
0c00c0
0c00c0
1c01c0
1c0380
180300
180600
381c00
fff000
ENDCHAR
STARTCHAR E
ENCODING 69
SWIDTH 569 0
DWIDTH 14 0
BBX 15 17 1 0
BITMAP
1ffe
0706
0606
0600
0600
0e00
0e00
0c10
0ff0
0c10
1c00
1c00
1800
1800
1818
3818
fff0
ENDCHAR
STARTCHAR F
ENCODING 70
SWIDTH 551 0
DWIDTH 13 0
BBX 15 17 1 0
BITMAP
1ffe
0706
0606
0600
0600
0e00
0e00
0c10
0ff0
0c10
1c00
1c00
1800
1800
1800
3800
fe00
ENDCHAR
STARTCHAR G
ENCODING 71
SWIDTH 756 0
DWIDTH 18 0
BBX 16 17 3 0
BITMAP
01fe
0707
0c02
1802
3800
7000
7000
6000
e000
e000
e07f
e01c
e018
e018
7018
3838
0fe0
ENDCHAR
STARTCHAR H
ENCODING 72
SWIDTH 776 0
DWIDTH 19 0
BBX 21 17 1 0
BITMAP
1fc3f8
0700e0
0700c0
0600c0
0601c0
0601c0
0e01c0
0e0180
0fff80
0c0380
0c0380
1c0300
1c0300
180300
180700
380700
fe1fc0
ENDCHAR
STARTCHAR I
ENCODING 73
SWIDTH 325 0
DWIDTH 8 0
BBX 10 17 1 0
BITMAP
1fc0
0700
0700
0600
0600
0e00
0e00
0c00
0c00
0c00
1c00
1c00
1800
1800
1800
3800
fe00
ENDCHAR
STARTCHAR J
ENCODING 74
SWIDTH 422 0
DWIDTH 10 0
BBX 14 21 0 -4
BITMAP
01fc
0070
0060
0060
00e0
00e0
00c0
00c0
00c0
01c0
01c0
01c0
0180
0180
0380
0380
0300
4300
c600
c600
f800
ENDCHAR
STARTCHAR K
ENCODING 75
SWIDTH 698 0
DWIDTH 17 0
BBX 18 17 1 0
BITMAP
1fc7c0
070300
070600
060c00
061000
0e2000
0ec000
0f8000
0f8000
0dc000
1ce000
1ce000
1c7000
183800
181c00
381c00
fe7f00
ENDCHAR
STARTCHAR L
ENCODING 76
SWIDTH 572 0
DWIDTH 14 0
BBX 13 17 1 0
BITMAP
1fc0
0700
0600
0600
0600
0e00
0e00
0c00
0c00
0c00
1c00
1c00
1800
1800
1808
3818
fff0
ENDCHAR
STARTCHAR M
ENCODING 77
SWIDTH 865 0
DWIDTH 21 0
BBX 23 17 1 0
BITMAP
1f003e
070078
070070
0780b0
0580b0
058170
0d8270
09c260
08c460
08cc60
18c8e0
18f0c0
1070c0
1060c0
1040c0
3001c0
fc07f0
ENDCHAR
STARTCHAR N
ENCODING 78
SWIDTH 762 0
DWIDTH 18 0
BBX 21 17 1 0
BITMAP
1e01f8
070060
070040
078040
05c040
05c0c0
08e080
086080
087080
083880
183900
101d00
100d00
100f00
100700
300600
fc0200
ENDCHAR
STARTCHAR O
ENCODING 79
SWIDTH 783 0
DWIDTH 19 0
BBX 17 17 3 0
BITMAP
00f800
070e00
0c0700
180300
380380
300380
600380
600380
e00380
e00300
e00300
e00600
e00e00
e00c00
701800
387000
0fc000
ENDCHAR
STARTCHAR P
ENCODING 80
SWIDTH 579 0
DWIDTH 14 0
BBX 15 17 1 0
BITMAP
1ff8
070c
060e
060e
060e
0e0e
0e0c
0c18
0c70
0fc0
1c00
1c00
1800
1800
3800
3800
fe00
ENDCHAR
STARTCHAR Q
ENCODING 81
SWIDTH 788 0
DWIDTH 19 0
BBX 19 22 3 -5
BITMAP
01f800
070e00
0c0700
180300
300380
700380
600380
600380
e00380
e00300
e00700
e00700
e00e00
e00c00
701c00
387800
0fe000
008000
004000
003800
000fe0
0003c0
ENDCHAR
STARTCHAR R
ENCODING 82
SWIDTH 686 0
DWIDTH 16 0
BBX 16 17 1 0
BITMAP
1ffc
070e
0706
0606
0606
060e
0e0c
0e38
0fe0
0ce0
0c70
1c70
1c38
1838
181c
381c
fe0f
ENDCHAR
STARTCHAR S
ENCODING 83
SWIDTH 549 0
DWIDTH 13 0
BBX 13 17 2 0
BITMAP
03e0
0e38
1c10
1810
1810
1c00
1e00
0f00
0780
03c0
00e0
00e0
00e0
40e0
c0c0
c180
7e00
ENDCHAR
STARTCHAR T
ENCODING 84
SWIDTH 663 0
DWIDTH 16 0
BBX 16 17 3 0
BITMAP
7fff
c183
8182
0380
0380
0300
0300
0300
0700
0700
0600
0600
0e00
0e00
0c00
1c00
7f80
ENDCHAR
STARTCHAR U
ENCODING 85
SWIDTH 727 0
DWIDTH 17 0
BBX 17 17 4 0
BITMAP
fe1f80
380600
300400
300400
300400
700400
700800
600800
600800
e00800
e01800
c01000
c01000
c03000
e02000
70c000
1f8000
ENDCHAR
STARTCHAR V
ENCODING 86
SWIDTH 656 0
DWIDTH 16 0
BBX 17 17 3 0
BITMAP
fc0780
700300
300200
300400
380c00
380800
381000
183000
182000
1c4000
1c4000
1c8000
0d8000
0d0000
0e0000
0e0000
0c0000
ENDCHAR
STARTCHAR W
ENCODING 87
SWIDTH 878 0
DWIDTH 21 0
BBX 22 17 3 0
BITMAP
fc107c
703010
303030
307020
307060
30b040
30b880
313880
313900
321900
321a00
341a00
341c00
381c00
381800
301800
301000
ENDCHAR
STARTCHAR X
ENCODING 88
SWIDTH 624 0
DWIDTH 15 0
BBX 19 17 0 0
BITMAP
0fc3e0
078080
038100
018200
01c400
01c800
00d000
00e000
007000
00f000
013000
023800
041800
081c00
101c00
300e00
f83f00
ENDCHAR
STARTCHAR Y
ENCODING 89
SWIDTH 663 0
DWIDTH 16 0
BBX 16 17 3 0
BITMAP
fc1f
7804
3808
3810
1830
1c60
0c40
0e80
0700
0600
0600
0e00
0e00
0c00
0c00
1c00
7f00
ENDCHAR
STARTCHAR Z
ENCODING 90
SWIDTH 633 0
DWIDTH 15 0
BBX 16 17 1 0
BITMAP
0fff
0c06
080c
181c
0038
0070
00e0
01c0
0180
0380
0700
0e00
1c00
3800
300c
6018
fff8
ENDCHAR
STARTCHAR bracketleft
ENCODING 91
SWIDTH 310 0
DWIDTH 7 0
BBX 9 21 1 -4
BITMAP
0f80
0c00
0c00
0c00
1c00
1800
1800
1800
1800
3000
3000
3000
3000
3000
6000
6000
6000
6000
6000
c000
f800
ENDCHAR
STARTCHAR backslash
ENCODING 92
SWIDTH 458 0
DWIDTH 11 0
BBX 7 21 4 -4
BITMAP
c0
c0
40
40
60
20
20
20
30
10
10
10
18
08
08
08
0c
04
04
06
06
ENDCHAR
STARTCHAR bracketright
ENCODING 93
SWIDTH 310 0
DWIDTH 7 0
BBX 9 21 0 -4
BITMAP
0f80
0180
0300
0300
0300
0300
0300
0600
0600
0600
0600
0600
0c00
0c00
0c00
0c00
1c00
1800
1800
1800
f800
ENDCHAR
STARTCHAR asciicircum
ENCODING 94
SWIDTH 608 0
DWIDTH 15 0
BBX 14 14 1 3
BITMAP
0040
0040
00c0
01e0
0120
0220
0630
0410
0810
1810
3008
2008
6008
c004
ENDCHAR
STARTCHAR underscore
ENCODING 95
SWIDTH 500 0
DWIDTH 12 0
BBX 10 2 1 -3
BITMAP
ffc0
ffc0
ENDCHAR
STARTCHAR grave
ENCODING 96
SWIDTH 560 0
DWIDTH 13 0
BBX 4 3 8 14
BITMAP
e0
20
10
ENDCHAR
STARTCHAR a
ENCODING 97
SWIDTH 608 0
DWIDTH 15 0
BBX 13 13 2 0
BITMAP
03f8
0438
1830
1030
3030
6030
6070
e0e0
e160
c360
e660
fce0
70f8
ENDCHAR
STARTCHAR b
ENCODING 98
SWIDTH 596 0
DWIDTH 14 0
BBX 13 17 2 0
BITMAP
7c00
1c00
1c00
1800
1870
19f8
3b38
3618
3438
3838
7030
7030
6060
6060
60c0
e100
fe00
ENDCHAR
STARTCHAR c
ENCODING 99
SWIDTH 487 0
DWIDTH 12 0
BBX 11 13 2 0
BITMAP
07e0
0860
1060
2040
6000
6000
e000
e000
c000
c000
e000
6080
3f00
ENDCHAR
STARTCHAR d
ENCODING 100
SWIDTH 608 0
DWIDTH 15 0
BBX 14 17 2 0
BITMAP
007c
001c
0018
0018
03f8
0438
1838
3030
3030
6070
6070
e0e0
e160
c360
e6e0
fce0
70f8
ENDCHAR
STARTCHAR e
ENCODING 101
SWIDTH 518 0
DWIDTH 12 0
BBX 10 13 2 0
BITMAP
0780
08c0
10c0
30c0
60c0
6180
e300
fc00
c000
c000
e040
71c0
3e00
ENDCHAR
STARTCHAR f
ENCODING 102
SWIDTH 380 0
DWIDTH 9 0
BBX 12 24 2 -5
BITMAP
01f0
0230
0630
0420
0c00
0c00
3fc0
1c00
1800
1800
1800
3800
3800
3000
3000
3000
7000
7000
6000
6000
6000
e000
e000
c000
ENDCHAR
STARTCHAR g
ENCODING 103
SWIDTH 602 0
DWIDTH 14 0
BBX 14 18 1 -5
BITMAP
01fc
061c
0818
1818
1018
3038
3038
7070
60b0
61b0
7330
7e70
3860
0060
8060
c0c0
6080
7f00
ENDCHAR
STARTCHAR h
ENCODING 104
SWIDTH 631 0
DWIDTH 15 0
BBX 13 17 2 0
BITMAP
7c00
1c00
1c00
1800
1870
19f8
3b38
3638
3430
3830
7030
7070
6070
6060
6060
e060
c0f8
ENDCHAR
STARTCHAR i
ENCODING 105
SWIDTH 289 0
DWIDTH 7 0
BBX 6 17 2 0
BITMAP
0c
1c
00
00
f8
38
38
30
30
30
70
60
60
60
60
e0
f8
ENDCHAR
STARTCHAR j
ENCODING 106
SWIDTH 343 0
DWIDTH 8 0
BBX 12 22 -1 -5
BITMAP
0070
0070
0000
0000
03e0
00e0
00e0
00c0
00c0
00c0
01c0
01c0
0180
0180
0180
0380
0380
0300
4300
c600
c400
f800
ENDCHAR
STARTCHAR k
ENCODING 107
SWIDTH 560 0
DWIDTH 13 0
BBX 12 17 2 0
BITMAP
7c00
1c00
1800
1800
1870
1860
38e0
31c0
3300
3400
7c00
6e00
6700
6700
6380
e1c0
c0f0
ENDCHAR
STARTCHAR l
ENCODING 108
SWIDTH 289 0
DWIDTH 7 0
BBX 6 17 2 0
BITMAP
7c
1c
18
18
18
18
38
30
30
30
70
60
60
60
60
e0
f8
ENDCHAR
STARTCHAR m
ENCODING 109
SWIDTH 944 0
DWIDTH 23 0
BBX 20 13 3 0
BITMAP
f8e0e0
39f3f0
333770
363470
3c7c60
787860
707060
706060
6060e0
60e0c0
e0e0c0
e0c0c0
c0c1f0
ENDCHAR
STARTCHAR n
ENCODING 110
SWIDTH 631 0
DWIDTH 15 0
BBX 13 13 2 0
BITMAP
f870
39f8
3338
3638
3430
3830
7030
7070
6070
6060
6060
e060
c0f8
ENDCHAR
STARTCHAR o
ENCODING 111
SWIDTH 560 0
DWIDTH 13 0
BBX 12 13 2 0
BITMAP
07c0
0ce0
3870
3070
6070
6070
e070
e060
e060
e0c0
e180
e300
7e00
ENDCHAR
STARTCHAR p
ENCODING 112
SWIDTH 608 0
DWIDTH 15 0
BBX 14 18 1 -5
BITMAP
7c38
1cfc
199c
1b0c
1e1c
3c1c
3818
3018
3030
3020
7060
7080
7f00
6000
6000
e000
e000
c000
ENDCHAR
STARTCHAR q
ENCODING 113
SWIDTH 599 0
DWIDTH 14 0
BBX 13 18 2 -5
BITMAP
03f8
0438
1838
1030
3030
6030
6070
e0f0
e160
c360
e660
fce0
70e0
00c0
00c0
00c0
01c0
01c0
ENDCHAR
STARTCHAR r
ENCODING 114
SWIDTH 470 0
DWIDTH 11 0
BBX 11 13 2 0
BITMAP
f860
39e0
33c0
3600
3c00
3800
7000
7000
6000
6000
6000
e000
c000
ENDCHAR
STARTCHAR s
ENCODING 115
SWIDTH 440 0
DWIDTH 11 0
BBX 10 13 1 0
BITMAP
0f80
18c0
1840
18c0
1800
1c00
0e00
0700
0380
c180
c180
c300
7e00
ENDCHAR
STARTCHAR t
ENCODING 116
SWIDTH 355 0
DWIDTH 9 0
BBX 8 16 2 0
BITMAP
18
18
38
ff
30
30
70
70
60
60
60
e0
e0
c0
e0
78
ENDCHAR
STARTCHAR u
ENCODING 117
SWIDTH 630 0
DWIDTH 15 0
BBX 13 13 2 0
BITMAP
f8f8
3038
3030
3030
7030
7030
6070
60e0
6160
e360
e660
fce0
70f8
ENDCHAR
STARTCHAR v
ENCODING 118
SWIDTH 558 0
DWIDTH 13 0
BBX 14 13 1 0
BITMAP
f81c
381c
1818
1c18
1c10
0c30
0c20
0c40
0c80
0f00
0e00
0e00
0c00
ENDCHAR
STARTCHAR w
ENCODING 119
SWIDTH 805 0
DWIDTH 19 0
BBX 19 13 2 0
BITMAP
f020e0
302060
387060
1870c0
18f0c0
18b180
1db900
1d3b00
0e1e00
0e1c00
0c1c00
0c1800
081000
ENDCHAR
STARTCHAR x
ENCODING 120
SWIDTH 510 0
DWIDTH 12 0
BBX 12 13 1 0
BITMAP
7870
1830
1c60
0c40
0e80
0700
0700
0b00
1380
2180
61c0
c1c0
c0f0
ENDCHAR
STARTCHAR y
ENCODING 121
SWIDTH 558 0
DWIDTH 13 0
BBX 15 18 0 -5
BITMAP
7c0e
1c06
0c06
0e0c
0608
0618
0610
0620
0740
0340
0380
0300
0200
0400
0c00
1800
3000
e000
ENDCHAR
STARTCHAR z
ENCODING 122
SWIDTH 536 0
DWIDTH 13 0
BBX 13 13 1 0
BITMAP
1ff8
1030
3060
00c0
01c0
0380
0700
0e00
1c00
3800
3030
6020
ffe0
ENDCHAR
STARTCHAR braceleft
ENCODING 123
SWIDTH 337 0
DWIDTH 8 0
BBX 8 21 2 -4
BITMAP
07
0c
0c
18
18
18
18
18
10
10
e0
20
30
30
70
60
e0
c0
c0
c0
30
ENDCHAR
STARTCHAR bar
ENCODING 124
SWIDTH 241 0
DWIDTH 6 0
BBX 6 21 1 -4
BITMAP
0c
0c
08
08
18
18
18
10
10
30
30
30
20
20
60
60
60
40
40
c0
c0
ENDCHAR
STARTCHAR braceright
ENCODING 125
SWIDTH 337 0
DWIDTH 8 0
BBX 8 21 2 -4
BITMAP
0e
03
03
03
03
06
06
06
04
06
03
04
08
18
18
18
18
18
18
30
e0
ENDCHAR
STARTCHAR asciitilde
ENCODING 126
SWIDTH 608 0
DWIDTH 15 0
BBX 15 6 1 4
BITMAP
1c00
3e02
4704
81c4
80fc
8078
ENDCHAR
STARTCHAR nobreakspace
ENCODING 160
SWIDTH 333 0
DWIDTH 7 0
BBX 1 1 0 0
BITMAP
00
ENDCHAR
STARTCHAR Aogonek
ENCODING 161
SWIDTH 747 0
DWIDTH 18 0
BBX 18 21 0 -4
BITMAP
000800
001800
001c00
003c00
005c00
004c00
008c00
010e00
010e00
020e00
060600
07fe00
080700
100700
200700
200780
f81fc0
00e000
018000
018000
00e000
ENDCHAR
STARTCHAR breve
ENCODING 162
SWIDTH 560 0
DWIDTH 13 0
BBX 8 3 7 14
BITMAP
81
e6
78
ENDCHAR
STARTCHAR Lstroke
ENCODING 163
SWIDTH 572 0
DWIDTH 13 0
BBX 13 17 1 0
BITMAP
1fc0
0700
0700
0600
0600
0600
0ec0
0f00
0c00
3c00
5c00
1c00
1c00
1800
1808
3818
fff0
ENDCHAR
STARTCHAR currency
ENCODING 164
SWIDTH 608 0
DWIDTH 15 0
BBX 16 15 1 1
BITMAP
1001
1002
0be4
0618
0c08
0808
1008
1008
1008
1018
1810
1c70
27d0
4008
8004
ENDCHAR
STARTCHAR Lcaron
ENCODING 165
SWIDTH 666 0
DWIDTH 16 0
BBX 15 19 1 0
BITMAP
000e
000e
1fc4
070c
0618
0610
0600
0e00
0e00
0c00
0c00
0c00
1c00
1c00
1800
1800
1808
3818
fff0
ENDCHAR
STARTCHAR Sacute
ENCODING 166
SWIDTH 549 0
DWIDTH 13 0
BBX 14 21 2 0
BITMAP
001c
0030
00c0
0000
03e0
0e38
1c10
1810
1810
1c00
1e00
0f00
0780
03c0
00e0
00e0
00e0
40e0
c0c0
c180
7e00
ENDCHAR
STARTCHAR section
ENCODING 167
SWIDTH 608 0
DWIDTH 15 0
BBX 14 22 2 -5
BITMAP
01fc
060c
0c08
0c00
1800
1c00
0f00
0fc0
19e0
1070
3030
3010
3c30
1f20
07c0
01e0
0060
0070
c060
c060
e1c0
7f00
ENDCHAR
STARTCHAR diaeresis
ENCODING 168
SWIDTH 560 0
DWIDTH 13 0
BBX 7 2 7 15
BITMAP
c6
c6
ENDCHAR
STARTCHAR Scaron
ENCODING 169
SWIDTH 549 0
DWIDTH 13 0
BBX 14 21 2 0
BITMAP
030c
01b0
01e0
0000
03e0
0e38
1c10
1810
1810
1c00
1e00
0f00
0780
03c0
00e0
00e0
00e0
40e0
c0c0
c180
7e00
ENDCHAR
STARTCHAR Scedilla
ENCODING 170
SWIDTH 549 0
DWIDTH 13 0
BBX 13 23 2 -6
BITMAP
03e0
0e38
1c10
1810
1810
1c00
1e00
0f00
0780
03c0
00e0
00e0
00e0
40e0
c0c0
c180
7e00
0100
0200
0180
0180
0180
0700
ENDCHAR
STARTCHAR Tcaron
ENCODING 171
SWIDTH 663 0
DWIDTH 16 0
BBX 16 21 3 0
BITMAP
030c
01b0
01e0
0000
7fff
c183
8182
0380
0380
0300
0300
0300
0700
0700
0600
0600
0e00
0e00
0c00
1c00
7f80
ENDCHAR
STARTCHAR Zacute
ENCODING 172
SWIDTH 633 0
DWIDTH 15 0
BBX 16 21 1 0
BITMAP
0007
000c
0030
0000
0fff
0c06
080c
181c
0038
0070
00e0
01c0
0180
0380
0700
0e00
1c00
3800
300c
6018
fff8
ENDCHAR
STARTCHAR hyphen
ENCODING 173
SWIDTH 313 0
DWIDTH 8 0
BBX 6 2 2 7
BITMAP
fc
fc
ENDCHAR
STARTCHAR Zcaron
ENCODING 174
SWIDTH 633 0
DWIDTH 15 0
BBX 16 21 1 0
BITMAP
00c3
006c
0078
0000
0fff
0c06
080c
181c
0038
0070
00e0
01c0
0180
0380
0700
0e00
1c00
3800
300c
6018
fff8
ENDCHAR
STARTCHAR Zabovedot
ENCODING 175
SWIDTH 633 0
DWIDTH 15 0
BBX 16 20 1 0
BITMAP
0070
0070
0000
0fff
0c06
080c
181c
0038
0070
00e0
01c0
0180
0380
0700
0e00
1c00
3800
300c
6018
fff8
ENDCHAR
STARTCHAR degree
ENCODING 176
SWIDTH 277 0
DWIDTH 7 0
BBX 4 4 4 13
BITMAP
60
90
90
60
ENDCHAR
STARTCHAR aogonek
ENCODING 177
SWIDTH 608 0
DWIDTH 15 0
BBX 13 17 2 -4
BITMAP
03f8
0438
1830
1030
3030
6030
6070
e0e0
e160
c360
e660
fce0
70f8
0380
0600
0600
0380
ENDCHAR
STARTCHAR ogonek
ENCODING 178
SWIDTH 560 0
DWIDTH 13 0
BBX 4 4 4 -5
BITMAP
70
c0
c0
70
ENDCHAR
STARTCHAR lstroke
ENCODING 179
SWIDTH 289 0
DWIDTH 7 0
BBX 8 17 1 0
BITMAP
3e
0e
0c
0c
0c
0c
1c
1f
78
98
38
30
30
30
70
70
7c
ENDCHAR
STARTCHAR acute
ENCODING 180
SWIDTH 560 0
DWIDTH 13 0
BBX 6 3 8 14
BITMAP
1c
30
c0
ENDCHAR
STARTCHAR lcaron
ENCODING 181
SWIDTH 500 0
DWIDTH 12 0
BBX 11 19 2 0
BITMAP
00e0
00e0
7c40
1cc0
1980
1900
1800
1800
3800
3000
3000
3000
7000
6000
6000
6000
6000
e000
f800
ENDCHAR
STARTCHAR sacute
ENCODING 182
SWIDTH 440 0
DWIDTH 11 0
BBX 12 17 1 0
BITMAP
0070
00c0
0300
0000
0f80
18c0
1840
18c0
1800
1c00
0e00
0700
0380
c180
c180
c300
7e00
ENDCHAR
STARTCHAR caron
ENCODING 183
SWIDTH 560 0
DWIDTH 13 0
BBX 8 3 7 14
BITMAP
c3
6c
78
ENDCHAR
STARTCHAR cedilla
ENCODING 184
SWIDTH 560 0
DWIDTH 13 0
BBX 4 6 4 -5
BITMAP
20
40
30
30
30
e0
ENDCHAR
STARTCHAR scaron
ENCODING 185
SWIDTH 440 0
DWIDTH 11 0
BBX 12 17 1 0
BITMAP
0c30
06c0
0780
0000
0f80
18c0
1840
18c0
1800
1c00
0e00
0700
0380
c180
c180
c300
7e00
ENDCHAR
STARTCHAR scedilla
ENCODING 186
SWIDTH 440 0
DWIDTH 11 0
BBX 10 19 1 -6
BITMAP
0f80
18c0
1840
18c0
1800
1c00
0e00
0700
0380
c180
c180
c300
7e00
0400
0800
0600
0600
0600
1c00
ENDCHAR
STARTCHAR tcaron
ENCODING 187
SWIDTH 458 0
DWIDTH 11 0
BBX 10 20 2 0
BITMAP
01c0
01c0
0080
0180
1b00
1a00
3800
ff00
3000
3000
7000
7000
6000
6000
6000
e000
e000
c000
e000
7800
ENDCHAR
STARTCHAR zacute
ENCODING 188
SWIDTH 536 0
DWIDTH 13 0
BBX 13 17 1 0
BITMAP
0038
0060
0180
0000
1ff8
1030
3060
00c0
01c0
0380
0700
0e00
1c00
3800
3030
6020
ffe0
ENDCHAR
STARTCHAR doubleacute
ENCODING 189
SWIDTH 560 0
DWIDTH 13 0
BBX 8 3 7 14
BITMAP
1f
2c
d0
ENDCHAR
STARTCHAR zcaron
ENCODING 190
SWIDTH 536 0
DWIDTH 13 0
BBX 13 17 1 0
BITMAP
0618
0360
03c0
0000
1ff8
1030
3060
00c0
01c0
0380
0700
0e00
1c00
3800
3030
6020
ffe0
ENDCHAR
STARTCHAR zabovedot
ENCODING 191
SWIDTH 536 0
DWIDTH 13 0
BBX 13 16 1 0
BITMAP
0380
0380
0000
1ff8
1030
3060
00c0
01c0
0380
0700
0e00
1c00
3800
3030
6020
ffe0
ENDCHAR
STARTCHAR Racute
ENCODING 192
SWIDTH 686 0
DWIDTH 16 0
BBX 16 21 1 0
BITMAP
000e
0018
0060
0000
1ffc
070e
0706
0606
0606
060e
0e0c
0e38
0fe0
0ce0
0c70
1c70
1c38
1838
181c
381c
fe0f
ENDCHAR
STARTCHAR Aacute
ENCODING 193
SWIDTH 747 0
DWIDTH 18 0
BBX 18 21 0 0
BITMAP
000380
000600
001800
000000
000800
001800
001c00
003c00
005c00
004c00
008c00
010e00
010e00
020e00
060600
07fe00
080700
100700
200700
200780
f81fc0
ENDCHAR
STARTCHAR Acircumflex
ENCODING 194
SWIDTH 747 0
DWIDTH 18 0
BBX 18 21 0 0
BITMAP
000f00
001b00
006180
000000
000800
001800
001c00
003c00
005c00
004c00
008c00
010e00
010e00
020e00
060600
07fe00
080700
100700
200700
200780
f81fc0
ENDCHAR
STARTCHAR Abreve
ENCODING 195
SWIDTH 747 0
DWIDTH 18 0
BBX 18 21 0 0
BITMAP
002040
003980
001e00
000000
000800
001800
001c00
003c00
005c00
004c00
008c00
010e00
010e00
020e00
060600
07fe00
080700
100700
200700
200780
f81fc0
ENDCHAR
STARTCHAR Adiaeresis
ENCODING 196
SWIDTH 747 0
DWIDTH 18 0
BBX 18 20 0 0
BITMAP
003180
003180
000000
000800
001800
001c00
003c00
005c00
004c00
008c00
010e00
010e00
020e00
060600
07fe00
080700
100700
200700
200780
f81fc0
ENDCHAR
STARTCHAR Lacute
ENCODING 197
SWIDTH 572 0
DWIDTH 14 0
BBX 13 21 1 0
BITMAP
0070
00c0
0300
0000
1fc0
0700
0600
0600
0600
0e00
0e00
0c00
0c00
0c00
1c00
1c00
1800
1800
1808
3818
fff0
ENDCHAR
STARTCHAR Cacute
ENCODING 198
SWIDTH 714 0
DWIDTH 17 0
BBX 16 21 3 0
BITMAP
0007
000c
0030
0000
01ff
0707
0e03
1c02
3800
7000
7000
6000
e000
e000
e000
e000
e000
6000
7000
3818
0fe0
ENDCHAR
STARTCHAR Ccedilla
ENCODING 199
SWIDTH 714 0
DWIDTH 17 0
BBX 16 22 3 -5
BITMAP
01ff
0707
0e03
1c02
3800
7000
7000
6000
e000
e000
e000
e000
e000
6000
7000
3818
0fe0
0800
0600
0600
0600
1c00
ENDCHAR
STARTCHAR Ccaron
ENCODING 200
SWIDTH 714 0
DWIDTH 17 0
BBX 16 21 3 0
BITMAP
00c3
006c
0078
0000
01ff
0707
0e03
1c02
3800
7000
7000
6000
e000
e000
e000
e000
e000
6000
7000
3818
0fe0
ENDCHAR
STARTCHAR Eacute
ENCODING 201
SWIDTH 569 0
DWIDTH 14 0
BBX 15 21 1 0
BITMAP
001c
0030
00c0
0000
1ffe
0706
0606
0600
0600
0e00
0e00
0c10
0ff0
0c10
1c00
1c00
1800
1800
1818
3818
fff0
ENDCHAR
STARTCHAR Eogonek
ENCODING 202
SWIDTH 569 0
DWIDTH 14 0
BBX 15 21 1 -4
BITMAP
1ffe
0706
0606
0600
0600
0e00
0e00
0c10
0ff0
0c10
1c00
1c00
1800
1800
1818
3818
fff0
01c0
0300
0300
01c0
ENDCHAR
STARTCHAR Ediaeresis
ENCODING 203
SWIDTH 569 0
DWIDTH 14 0
BBX 15 20 1 0
BITMAP
018c
018c
0000
1ffe
0706
0606
0600
0600
0e00
0e00
0c10
0ff0
0c10
1c00
1c00
1800
1800
1818
3818
fff0
ENDCHAR
STARTCHAR Ecaron
ENCODING 204
SWIDTH 569 0
DWIDTH 14 0
BBX 15 21 1 0
BITMAP
0186
00d8
00f0
0000
1ffe
0706
0606
0600
0600
0e00
0e00
0c10
0ff0
0c10
1c00
1c00
1800
1800
1818
3818
fff0
ENDCHAR
STARTCHAR Iacute
ENCODING 205
SWIDTH 325 0
DWIDTH 8 0
BBX 11 21 1 0
BITMAP
00e0
0180
0600
0000
1fc0
0700
0700
0600
0600
0e00
0e00
0c00
0c00
0c00
1c00
1c00
1800
1800
1800
3800
fe00
ENDCHAR
STARTCHAR Icircumflex
ENCODING 206
SWIDTH 325 0
DWIDTH 8 0
BBX 11 21 1 0
BITMAP
03c0
06c0
1860
0000
1fc0
0700
0700
0600
0600
0e00
0e00
0c00
0c00
0c00
1c00
1c00
1800
1800
1800
3800
fe00
ENDCHAR
STARTCHAR Dcaron
ENCODING 207
SWIDTH 770 0
DWIDTH 18 0
BBX 19 21 0 0
BITMAP
00c300
006c00
007800
000000
1ffe00
070380
0701c0
0600e0
0600e0
0600e0
0e00e0
0e00e0
0c00e0
0c00c0
0c00c0
1c01c0
1c0380
180300
180600
381c00
fff000
ENDCHAR
STARTCHAR Dstroke
ENCODING 208
SWIDTH 770 0
DWIDTH 18 0
BBX 19 17 0 0
BITMAP
1ffe00
070380
0701c0
0600e0
0600e0
0600e0
0e00e0
0e00e0
7fe0e0
0c00c0
0c00c0
1c01c0
1c0380
180300
180600
381c00
fff000
ENDCHAR
STARTCHAR Nacute
ENCODING 209
SWIDTH 762 0
DWIDTH 18 0
BBX 21 21 1 0
BITMAP
0001c0
000300
000c00
000000
1e01f8
070060
070040
078040
05c040
05c0c0
08e080
086080
087080
083880
183900
101d00
100d00
100f00
100700
300600
fc0200
ENDCHAR
STARTCHAR Ncaron
ENCODING 210
SWIDTH 762 0
DWIDTH 18 0
BBX 21 21 1 0
BITMAP
0030c0
001b00
001e00
000000
1e01f8
070060
070040
078040
05c040
05c0c0
08e080
086080
087080
083880
183900
101d00
100d00
100f00
100700
300600
fc0200
ENDCHAR
STARTCHAR Oacute
ENCODING 211
SWIDTH 783 0
DWIDTH 19 0
BBX 17 21 3 0
BITMAP
000e00
001800
006000
000000
00f800
070e00
0c0700
180300
380380
300380
600380
600380
e00380
e00300
e00300
e00600
e00e00
e00c00
701800
387000
0fc000
ENDCHAR
STARTCHAR Ocircumflex
ENCODING 212
SWIDTH 783 0
DWIDTH 19 0
BBX 17 21 3 0
BITMAP
003c00
006c00
018600
000000
00f800
070e00
0c0700
180300
380380
300380
600380
600380
e00380
e00300
e00300
e00600
e00e00
e00c00
701800
387000
0fc000
ENDCHAR
STARTCHAR Odoubleacute
ENCODING 213
SWIDTH 783 0
DWIDTH 19 0
BBX 17 21 3 0
BITMAP
000f80
001600
006800
000000
00f800
070e00
0c0700
180300
380380
300380
600380
600380
e00380
e00300
e00300
e00600
e00e00
e00c00
701800
387000
0fc000
ENDCHAR
STARTCHAR Odiaeresis
ENCODING 214
SWIDTH 783 0
DWIDTH 19 0
BBX 17 20 3 0
BITMAP
018c00
018c00
000000
00f800
070e00
0c0700
180300
380380
300380
600380
600380
e00380
e00300
e00300
e00600
e00e00
e00c00
701800
387000
0fc000
ENDCHAR
STARTCHAR multiply
ENCODING 215
SWIDTH 608 0
DWIDTH 15 0
BBX 16 14 1 0
BITMAP
3001
1002
080c
0418
0630
0260
0180
0180
06c0
0c60
1820
3010
6008
8008
ENDCHAR
STARTCHAR Rcaron
ENCODING 216
SWIDTH 686 0
DWIDTH 16 0
BBX 16 21 1 0
BITMAP
0186
00d8
00f0
0000
1ffc
070e
0706
0606
0606
060e
0e0c
0e38
0fe0
0ce0
0c70
1c70
1c38
1838
181c
381c
fe0f
ENDCHAR
STARTCHAR Uring
ENCODING 217
SWIDTH 727 0
DWIDTH 17 0
BBX 17 22 4 0
BITMAP
00c000
012000
012000
00c000
000000
fe1f80
380600
300400
300400
300400
700400
700800
600800
600800
e00800
e01800
c01000
c01000
c03000
e02000
70c000
1f8000
ENDCHAR
STARTCHAR Uacute
ENCODING 218
SWIDTH 727 0
DWIDTH 17 0
BBX 17 21 4 0
BITMAP
003800
006000
018000
000000
fe1f80
380600
300400
300400
300400
700400
700800
600800
600800
e00800
e01800
c01000
c01000
c03000
e02000
70c000
1f8000
ENDCHAR
STARTCHAR Udoubleacute
ENCODING 219
SWIDTH 727 0
DWIDTH 17 0
BBX 17 21 4 0
BITMAP
003e00
005800
01a000
000000
fe1f80
380600
300400
300400
300400
700400
700800
600800
600800
e00800
e01800
c01000
c01000
c03000
e02000
70c000
1f8000
ENDCHAR
STARTCHAR Udiaeresis
ENCODING 220
SWIDTH 727 0
DWIDTH 17 0
BBX 17 20 4 0
BITMAP
031800
031800
000000
fe1f80
380600
300400
300400
300400
700400
700800
600800
600800
e00800
e01800
c01000
c01000
c03000
e02000
70c000
1f8000
ENDCHAR
STARTCHAR Yacute
ENCODING 221
SWIDTH 663 0
DWIDTH 16 0
BBX 16 21 3 0
BITMAP
0038
0060
0180
0000
fc1f
7804
3808
3810
1830
1c60
0c40
0e80
0700
0600
0600
0e00
0e00
0c00
0c00
1c00
7f00
ENDCHAR
STARTCHAR Tcedilla
ENCODING 222
SWIDTH 663 0
DWIDTH 16 0
BBX 16 23 3 -6
BITMAP
7fff
c183
8182
0380
0380
0300
0300
0300
0700
0700
0600
0600
0e00
0e00
0c00
1c00
7f80
0080
0100
00c0
00c0
00c0
0380
ENDCHAR
STARTCHAR ssharp
ENCODING 223
SWIDTH 603 0
DWIDTH 14 0
BBX 13 24 2 -5
BITMAP
03e0
0630
0630
0c30
0c30
0c60
1c80
1d00
1b00
1b80
19c0
38e0
3870
3038
3018
3218
7210
7630
63c0
6000
6000
e000
e000
c000
ENDCHAR
STARTCHAR racute
ENCODING 224
SWIDTH 470 0
DWIDTH 11 0
BBX 11 17 2 0
BITMAP
00e0
0180
0600
0000
f860
39e0
33c0
3600
3c00
3800
7000
7000
6000
6000
6000
e000
c000
ENDCHAR
STARTCHAR aacute
ENCODING 225
SWIDTH 608 0
DWIDTH 15 0
BBX 13 17 2 0
BITMAP
0038
0060
0180
0000
03f8
0438
1830
1030
3030
6030
6070
e0e0
e160
c360
e660
fce0
70f8
ENDCHAR
STARTCHAR acircumflex
ENCODING 226
SWIDTH 608 0
DWIDTH 15 0
BBX 13 17 2 0
BITMAP
00f0
01b0
0618
0000
03f8
0438
1830
1030
3030
6030
6070
e0e0
e160
c360
e660
fce0
70f8
ENDCHAR
STARTCHAR abreve
ENCODING 227
SWIDTH 608 0
DWIDTH 15 0
BBX 14 17 2 0
BITMAP
0204
0398
01e0
0000
03f8
0438
1830
1030
3030
6030
6070
e0e0
e160
c360
e660
fce0
70f8
ENDCHAR
STARTCHAR adiaeresis
ENCODING 228
SWIDTH 608 0
DWIDTH 15 0
BBX 13 16 2 0
BITMAP
0318
0318
0000
03f8
0438
1830
1030
3030
6030
6070
e0e0
e160
c360
e660
fce0
70f8
ENDCHAR
STARTCHAR lacute
ENCODING 229
SWIDTH 289 0
DWIDTH 7 0
BBX 9 21 2 0
BITMAP
0380
0600
1800
0000
7c00
1c00
1800
1800
1800
1800
3800
3000
3000
3000
7000
6000
6000
6000
6000
e000
f800
ENDCHAR
STARTCHAR cacute
ENCODING 230
SWIDTH 487 0
DWIDTH 12 0
BBX 13 17 2 0
BITMAP
0038
0060
0180
0000
07e0
0860
1060
2040
6000
6000
e000
e000
c000
c000
e000
6080
3f00
ENDCHAR
STARTCHAR ccedilla
ENCODING 231
SWIDTH 487 0
DWIDTH 12 0
BBX 11 18 2 -5
BITMAP
07e0
0860
1060
2040
6000
6000
e000
e000
c000
c000
e000
6080
3f00
2000
1800
1800
1800
7000
ENDCHAR
STARTCHAR ccaron
ENCODING 232
SWIDTH 487 0
DWIDTH 12 0
BBX 13 17 2 0
BITMAP
0618
0360
03c0
0000
07e0
0860
1060
2040
6000
6000
e000
e000
c000
c000
e000
6080
3f00
ENDCHAR
STARTCHAR eacute
ENCODING 233
SWIDTH 518 0
DWIDTH 12 0
BBX 12 17 2 0
BITMAP
0070
00c0
0300
0000
0780
08c0
10c0
30c0
60c0
6180
e300
fc00
c000
c000
e040
71c0
3e00
ENDCHAR
STARTCHAR eogonek
ENCODING 234
SWIDTH 518 0
DWIDTH 12 0
BBX 10 17 2 -4
BITMAP
0780
08c0
10c0
30c0
60c0
6180
e300
fc00
c000
c000
e040
71c0
3e00
0e00
1800
1800
0e00
ENDCHAR
STARTCHAR ediaeresis
ENCODING 235
SWIDTH 518 0
DWIDTH 12 0
BBX 12 16 2 0
BITMAP
0630
0630
0000
0780
08c0
10c0
30c0
60c0
6180
e300
fc00
c000
c000
e040
71c0
3e00
ENDCHAR
STARTCHAR ecaron
ENCODING 236
SWIDTH 518 0
DWIDTH 12 0
BBX 12 17 2 0
BITMAP
0c30
06c0
0780
0000
0780
08c0
10c0
30c0
60c0
6180
e300
fc00
c000
c000
e040
71c0
3e00
ENDCHAR
STARTCHAR iacute
ENCODING 237
SWIDTH 289 0
DWIDTH 7 0
BBX 9 17 2 0
BITMAP
0380
0600
1800
0000
f800
3800
3000
3000
3000
3000
7000
6000
6000
6000
6000
e000
f800
ENDCHAR
STARTCHAR icircumflex
ENCODING 238
SWIDTH 289 0
DWIDTH 7 0
BBX 9 17 2 0
BITMAP
0f00
1b00
6180
0000
f800
3800
3000
3000
3000
3000
7000
6000
6000
6000
6000
e000
f800
ENDCHAR
STARTCHAR dcaron
ENCODING 239
SWIDTH 833 0
DWIDTH 20 0
BBX 19 19 2 0
BITMAP
0000e0
0000e0
007c40
001cc0
001980
001900
03f800
043800
183800
303000
303000
607000
607000
e0e000
e16000
c36000
e6e000
fce000
70f800
ENDCHAR
STARTCHAR dstroke
ENCODING 240
SWIDTH 750 0
DWIDTH 18 0
BBX 17 17 2 0
BITMAP
007c00
001c00
00ff80
001800
03f800
043800
183800
303000
303000
607000
607000
e0e000
e16000
c36000
e6e000
fce000
70f800
ENDCHAR
STARTCHAR nacute
ENCODING 241
SWIDTH 631 0
DWIDTH 15 0
BBX 13 17 2 0
BITMAP
0070
00c0
0300
0000
f870
39f8
3338
3638
3430
3830
7030
7070
6070
6060
6060
e060
c0f8
ENDCHAR
STARTCHAR ncaron
ENCODING 242
SWIDTH 631 0
DWIDTH 15 0
BBX 13 17 2 0
BITMAP
0c30
06c0
0780
0000
f870
39f8
3338
3638
3430
3830
7030
7070
6070
6060
6060
e060
c0f8
ENDCHAR
STARTCHAR oacute
ENCODING 243
SWIDTH 560 0
DWIDTH 13 0
BBX 12 17 2 0
BITMAP
0070
00c0
0300
0000
07c0
0ce0
3870
3070
6070
6070
e070
e060
e060
e0c0
e180
e300
7e00
ENDCHAR
STARTCHAR ocircumflex
ENCODING 244
SWIDTH 560 0
DWIDTH 13 0
BBX 12 17 2 0
BITMAP
01e0
0360
0c30
0000
07c0
0ce0
3870
3070
6070
6070
e070
e060
e060
e0c0
e180
e300
7e00
ENDCHAR
STARTCHAR odoubleacute
ENCODING 245
SWIDTH 560 0
DWIDTH 13 0
BBX 14 17 2 0
BITMAP
007c
00b0
0340
0000
07c0
0ce0
3870
3070
6070
6070
e070
e060
e060
e0c0
e180
e300
7e00
ENDCHAR
STARTCHAR odiaeresis
ENCODING 246
SWIDTH 560 0
DWIDTH 13 0
BBX 12 16 2 0
BITMAP
0630
0630
0000
07c0
0ce0
3870
3070
6070
6070
e070
e060
e060
e0c0
e180
e300
7e00
ENDCHAR
STARTCHAR division
ENCODING 247
SWIDTH 608 0
DWIDTH 15 0
BBX 14 13 2 0
BITMAP
0180
0180
0000
0000
0000
0000
fffc
0000
0000
0000
0000
0600
0600
ENDCHAR
STARTCHAR rcaron
ENCODING 248
SWIDTH 470 0
DWIDTH 11 0
BBX 11 17 2 0
BITMAP
1860
0d80
0f00
0000
f860
39e0
33c0
3600
3c00
3800
7000
7000
6000
6000
6000
e000
c000
ENDCHAR
STARTCHAR uring
ENCODING 249
SWIDTH 630 0
DWIDTH 15 0
BBX 13 18 2 0
BITMAP
0300
0480
0480
0300
0000
f8f8
3038
3030
3030
7030
7030
6070
60e0
6160
e360
e660
fce0
70f8
ENDCHAR
STARTCHAR uacute
ENCODING 250
SWIDTH 630 0
DWIDTH 15 0
BBX 13 17 2 0
BITMAP
0038
0060
0180
0000
f8f8
3038
3030
3030
7030
7030
6070
60e0
6160
e360
e660
fce0
70f8
ENDCHAR
STARTCHAR udoubleacute
ENCODING 251
SWIDTH 630 0
DWIDTH 15 0
BBX 13 17 2 0
BITMAP
00f8
0160
0680
0000
f8f8
3038
3030
3030
7030
7030
6070
60e0
6160
e360
e660
fce0
70f8
ENDCHAR
STARTCHAR udiaeresis
ENCODING 252
SWIDTH 630 0
DWIDTH 15 0
BBX 13 16 2 0
BITMAP
0318
0318
0000
f8f8
3038
3030
3030
7030
7030
6070
60e0
6160
e360
e660
fce0
70f8
ENDCHAR
STARTCHAR yacute
ENCODING 253
SWIDTH 558 0
DWIDTH 13 0
BBX 15 22 0 -5
BITMAP
000e
0018
0060
0000
7c0e
1c06
0c06
0e0c
0608
0618
0610
0620
0740
0340
0380
0300
0200
0400
0c00
1800
3000
e000
ENDCHAR
STARTCHAR tcedilla
ENCODING 254
SWIDTH 355 0
DWIDTH 9 0
BBX 8 22 2 -6
BITMAP
18
18
38
ff
30
30
70
70
60
60
60
e0
e0
c0
e0
78
08
10
0c
0c
0c
38
ENDCHAR
STARTCHAR abovedot
ENCODING 255
SWIDTH 560 0
DWIDTH 13 0
BBX 3 2 8 15
BITMAP
e0
e0
ENDCHAR
ENDFONT
